# xmcd CD database file
#
# Track frame offsets:
#	150
#	14307
#	33857
#
# Disc length: 707 seconds
#
# Revision: 0
# Processed by: cddbd v1.5.1PL0 Copyright (c) Steve Scherf et al.
# Submitted via: CDex 1.51
#
DISCID=1602c103
DTITLE=COIL - 裸のランチ
DYEAR=2000
DGENRE=JPop
TTITLE0=裸のランチ
TTITLE1=BLUE WEDNESDAY
TTITLE2=ロイヤル･ストレート･フラッシュ
EXTD=YEAR: 2000
EXTT0=
EXTT1=
EXTT2=
PLAYORDER=
